<svg xmlns="http://www.w3.org/2000/svg" width="41.664" height="43" viewBox="0 0 41.664 43"><g transform="translate(0.5 0.5)" fill="#fa8803"><path d="M 38.02122497558594 42.25 C 37.21709823608398 42.25 36.5264778137207 41.96527099609375 35.96855545043945 41.40370941162109 L 27.71265029907227 33.09494018554688 L 27.0728874206543 33.5017204284668 L 27.07045745849609 33.50326156616211 L 27.06799697875977 33.5047492980957 C 24.24038696289062 35.21252822875977 21.04145622253418 36.11521911621094 17.81702613830566 36.11521911621094 C 7.854836463928223 36.11521911621094 -0.2500034868717194 27.95845985412598 -0.2500034868717194 17.93244934082031 C -0.2500034868717194 7.906610012054443 7.854836463928223 -0.25 17.81702613830566 -0.25 C 19.86252593994141 -0.25 21.87169647216797 0.09344000369310379 23.78872680664062 0.7707700133323669 C 25.64183616638184 1.425379991531372 27.37050628662109 2.377290010452271 28.92670631408691 3.600039958953857 L 29.14754676818848 3.77357006072998 L 28.9495964050293 3.972820043563843 L 25.80601692199707 7.137030124664307 L 25.65503692626953 7.289000034332275 L 25.48172569274902 7.163090229034424 C 23.2356071472168 5.531310081481934 20.58519744873047 4.668799877166748 17.81702613830566 4.668799877166748 C 16.04925727844238 4.668799877166748 14.33187675476074 5.019060134887695 12.71258640289307 5.709859848022461 C 11.14922618865967 6.377359867095947 9.74428653717041 7.331989765167236 8.536856651306152 8.547200202941895 C 7.32901668548584 9.762820243835449 6.380446434020996 11.17716979980469 5.717486381530762 12.75094032287598 C 5.030936717987061 14.37979984283447 4.682836532592773 16.10868072509766 4.682836532592773 17.88961029052734 C 4.682836532592773 19.67049980163574 5.030936717987061 21.39954948425293 5.717476367950439 23.02873992919922 C 6.38029670715332 24.60213088989258 7.328866481781006 26.01635932922363 8.536856651306152 27.23213958740234 C 9.744936943054199 28.44795036315918 11.14985656738281 29.40254974365234 12.71260643005371 30.06942939758301 C 14.33122634887695 30.7602596282959 16.04859733581543 31.11054039001465 17.81702613830566 31.11054039001465 C 19.58541679382324 31.11054039001465 21.3026065826416 30.7602596282959 22.9208869934082 30.0694408416748 C 24.4844856262207 29.40237998962402 25.88953590393066 28.44779014587402 27.09706687927246 27.2321605682373 C 28.30497741699219 26.01635932922363 29.2535572052002 24.60213088989258 29.91646575927734 23.02874946594238 C 30.60307693481445 21.39888954162598 30.95121574401855 19.66983032226562 30.95121574401855 17.88961029052734 C 30.95121574401855 16.86964988708496 30.83445739746094 15.85286045074463 30.60417556762695 14.86748027801514 L 30.57265663146973 14.73262977600098 L 30.67026710510254 14.63438987731934 L 34.18941497802734 11.09235000610352 L 34.45787811279297 10.82215023040771 L 34.59897613525391 11.17593002319336 C 35.45169830322266 13.31390953063965 35.88405609130859 15.57271957397461 35.88405609130859 17.88961029052734 C 35.88405609130859 21.54056930541992 34.80793762207031 25.06040000915527 32.77204513549805 28.06856918334961 L 32.07413864135742 29.14053344726562 L 40.07468795776367 37.27688980102539 L 40.07804489135742 37.28031158447266 L 40.08127593994141 37.28385162353516 C 40.62611770629883 37.88220977783203 40.91409683227539 38.59321975708008 40.91409683227539 39.34003067016602 C 40.91409683227539 40.14826965332031 40.63136672973633 40.84260177612305 40.07375717163086 41.40372848510742 C 39.51598739624023 41.96525955200195 38.82539749145508 42.25 38.02122497558594 42.25 Z M 17.47039604187012 27.38211059570312 C 16.92352676391602 27.38211059570312 16.4089469909668 27.16728019714355 16.02145576477051 26.77720069885254 L 12.07798194885254 22.80832672119141 L 9.524006843566895 25.3789005279541 L 9.334026336669922 25.57011985778809 L 9.157626152038574 25.36631011962891 C 8.320626258850098 24.39926910400391 7.660636425018311 23.3031005859375 7.195986270904541 22.10824966430664 L 7.137076377868652 21.95676040649414 L 7.251636505126953 21.84144020080566 L 10.62990665435791 18.44098091125488 C 11.01719665527344 18.05141067504883 11.53146648406982 17.83690071105957 12.07803630828857 17.83690071105957 C 12.62459659576416 17.83690071105957 13.13886642456055 18.05141067504883 13.52609634399414 18.44091987609863 L 15.42228603363037 20.34944152832031 L 15.42228603363037 10.85233974456787 C 15.42228603363037 10.01770973205566 15.91771697998047 9.271220207214355 16.68444633483887 8.950579643249512 C 16.93501663208008 8.846710205078125 17.19830703735352 8.79419994354248 17.46771621704102 8.79419994354248 C 18.0145263671875 8.79419994354248 18.52917671203613 9.008339881896973 18.91686630249023 9.397159576416016 L 22.8604621887207 13.36635494232178 L 32.91869735717773 3.243013858795166 L 29.87130737304688 0.1762100011110306 L 29.44779586791992 -0.25 L 30.04864692687988 -0.25 L 39.03430557250977 -0.25 L 39.28430557250977 -0.25 L 39.28430557250977 0 L 39.28430557250977 9.043880462646484 L 39.28430557250977 9.650230407714844 L 38.85695648193359 9.220080375671387 L 35.81235122680664 6.155564308166504 L 24.30874633789062 17.73370933532715 C 23.92140579223633 18.12330055236816 23.40712738037109 18.33782958984375 22.86058616638184 18.33782958984375 C 22.31400680541992 18.33782958984375 21.79984664916992 18.1232795715332 21.41281700134277 17.73370933532715 L 19.51615715026855 15.82489013671875 L 19.51615715026855 25.32209014892578 C 19.51615715026855 26.15888977050781 19.02062606811523 26.90558052062988 18.25372695922852 27.22438049316406 C 18.00448608398438 27.32893943786621 17.74068641662598 27.38211059570312 17.47039604187012 27.38211059570312 Z" stroke="none"/><path d="M 38.02122497558594 42 C 38.75607681274414 42 39.38725662231445 41.74010848999023 39.89642715454102 41.22750854492188 C 40.40580749511719 40.71490859985352 40.66409683227539 40.0800895690918 40.66409683227539 39.34003067016602 C 40.66409683227539 38.65636825561523 40.39851760864258 38.00357818603516 39.89642715454102 37.45217132568359 L 31.75498580932617 29.17252922058105 L 32.56500625610352 27.9284496307373 C 34.57251739501953 24.96221923828125 35.63405609130859 21.49105072021484 35.63405609130859 17.88961029052734 C 35.63405609130859 15.60499954223633 35.20787811279297 13.3774299621582 34.36676788330078 11.26854991912842 L 30.84761619567871 14.81058979034424 C 31.08231735229492 15.81488037109375 31.20121574401855 16.8511791229248 31.20121574401855 17.88961029052734 C 31.20121574401855 19.70380973815918 30.84643745422363 21.46516036987305 30.1468563079834 23.12582015991211 C 29.47139739990234 24.72896957397461 28.50505638122559 26.16967964172363 27.27443695068359 27.40834999084473 C 26.04402732849121 28.64701080322266 24.61226654052734 29.61967086791992 23.0190372467041 30.29936981201172 C 21.36941719055176 31.00357055664062 19.61921691894531 31.36054039001465 17.81702613830566 31.36054039001465 C 16.01494598388672 31.36054039001465 14.26442623138428 31.00357055664062 12.61448669433594 30.29936981201172 C 11.02168655395508 29.61967086791992 9.589926719665527 28.64664077758789 8.359516143798828 27.40834999084473 C 7.128786563873291 26.16967964172363 6.16244649887085 24.72896957397461 5.487096309661865 23.12582015991211 C 4.787296295166016 21.46516036987305 4.432836532592773 19.70380973815918 4.432836532592773 17.88961029052734 C 4.432836532592773 16.07589912414551 4.787296295166016 14.31418037414551 5.487096309661865 12.65388965606689 C 6.16244649887085 11.05068969726562 7.128786563873291 9.609649658203125 8.359516143798828 8.370989799499512 C 9.589926719665527 7.132649898529053 11.02168655395508 6.159979820251465 12.61448669433594 5.479909896850586 C 14.26442623138428 4.776040077209473 16.01451683044434 4.418799877166748 17.81702613830566 4.418799877166748 C 20.63873672485352 4.418799877166748 23.3398265838623 5.298019886016846 25.62866592407227 6.960830211639404 L 28.77224731445312 3.796619892120361 C 27.23776626586914 2.590929985046387 25.53303718566895 1.652089953422546 23.70543670654297 1.006489992141724 C 21.81510734558105 0.338589996099472 19.83418655395508 0 17.81702613830566 0 C 7.992306709289551 0 -3.49121091858251e-06 8.044619560241699 -3.49121091858251e-06 17.93244934082031 C -3.49121091858251e-06 27.82058906555176 7.992306709289551 35.86521911621094 17.81702613830566 35.86521911621094 C 20.99565696716309 35.86521911621094 24.14984703063965 34.97515869140625 26.93874740600586 33.29074859619141 L 27.74822616577148 32.77605819702148 L 36.14590835571289 41.22750854492188 C 36.65518569946289 41.74010848999023 37.28571701049805 42 38.02122497558594 42 M 17.47039604187012 27.13211059570312 C 17.70198631286621 27.13211059570312 17.9352855682373 27.08686065673828 18.15776634216309 26.9935302734375 C 18.82796669006348 26.71492958068848 19.26615715026855 26.05286979675293 19.26615715026855 25.32209014892578 L 19.26615715026855 15.21860027313232 L 21.59016609191895 17.55751037597656 C 22.29264640808105 18.26459884643555 23.42838668823242 18.26459884643555 24.13139724731445 17.55751037597656 L 35.81235504150391 5.800859928131104 L 39.03430557250977 9.043880462646484 L 39.03430557250977 0 L 30.04864692687988 0 L 33.27112579345703 3.2430100440979 L 22.86046600341797 13.72105979919434 L 18.73983573913574 9.57367992401123 C 18.22412490844727 9.056468963623047 17.45303153991699 8.902620315551758 16.78089714050293 9.181220054626465 C 16.11058616638184 9.461540222167969 15.67228603363037 10.12193012237549 15.67228603363037 10.85233974456787 L 15.67228603363037 20.95577049255371 L 13.34880638122559 18.61717987060547 C 12.64589691162109 17.91014099121094 11.51016616821289 17.91014099121094 10.8072566986084 18.61717987060547 L 7.428986549377441 22.01763916015625 C 7.88551664352417 23.19160079956055 8.535886764526367 24.26596069335938 9.346656799316406 25.20269966125488 L 12.07797622680664 22.4536304473877 L 16.19881629943848 26.60100936889648 C 16.54266738891602 26.9471607208252 17.00240707397461 27.13211059570312 17.47039604187012 27.13211059570312 M 38.02122497558594 42.5 C 37.14806747436523 42.5 36.39777755737305 42.1904411315918 35.79120635986328 41.57991027832031 L 27.67706680297852 33.41381454467773 L 27.19724655151367 33.71875 C 24.33064651489258 35.45008087158203 21.08701705932617 36.36521911621094 17.81702613830566 36.36521911621094 C 7.716986656188965 36.36521911621094 -0.5000035166740417 28.09630966186523 -0.5000035166740417 17.93244934082031 C -0.5000035166740417 7.768760204315186 7.716986656188965 -0.5 17.81702613830566 -0.5 C 19.89096641540527 -0.5 21.92815589904785 -0.151759997010231 23.87200736999512 0.5350499749183655 C 25.7508659362793 1.198760032653809 27.50348663330078 2.163840055465698 29.08116722106934 3.403460025787354 L 29.52285575866699 3.750519990921021 L 25.68141555786133 7.617169857025146 L 25.33478736877441 7.365349769592285 C 23.13165664672852 5.764800071716309 20.53205680847168 4.918799877166748 17.81702613830566 4.918799877166748 C 16.08316612243652 4.918799877166748 14.3987865447998 5.262320041656494 12.81067657470703 5.939809799194336 C 11.27713680267334 6.594580173492432 9.898836135864258 7.531129837036133 8.714206695556641 8.723409652709961 C 7.529056549072266 9.916190147399902 6.598336696624756 11.30389976501465 5.947876453399658 12.84799957275391 C 5.274336338043213 14.44600009918213 4.932836532592773 16.14221000671387 4.932836532592773 17.88961029052734 C 4.932836532592773 19.63697052001953 5.274336338043213 21.33336067199707 5.947856426239014 22.93165969848633 C 6.598186492919922 24.47540092468262 7.528906345367432 25.86298942565918 8.714206695556641 27.05594062805176 C 9.899466514587402 28.2487907409668 11.27773666381836 29.18531036376953 12.81073665618896 29.83949089050293 C 14.39816665649414 30.51700973510742 16.08251571655273 30.86054039001465 17.81702613830566 30.86054039001465 C 19.5514965057373 30.86054039001465 21.23565673828125 30.51701927185059 22.8227367401123 29.83951950073242 C 24.35660743713379 29.18514060974121 25.73498725891113 28.2486400604248 26.91970634460449 27.05598068237305 C 28.10493659973145 25.86300086975098 29.03566741943359 24.47538948059082 29.68608665466309 22.93168067932129 C 30.35967636108398 21.33271980285645 30.70121574401855 19.63631057739258 30.70121574401855 17.88961029052734 C 30.70121574401855 16.88876914978027 30.58666610717773 15.89111995697021 30.36073684692383 14.92436981201172 L 30.29770660400391 14.65466976165771 L 34.54897689819336 10.37574005126953 L 34.8311882019043 11.08331966400146 C 35.69570541381836 13.25088977813721 36.13405609130859 15.54086017608643 36.13405609130859 17.88961029052734 C 36.13405609130859 21.58913803100586 35.04402160644531 25.15594673156738 32.98173141479492 28.20477676391602 L 32.3932991027832 29.10853385925293 L 40.2661247253418 37.11553955078125 C 40.85358810424805 37.76070022583008 41.16409683227539 38.5299186706543 41.16409683227539 39.34003067016602 C 41.16409683227539 40.21667861938477 40.85691833496094 40.97029113769531 40.25109481811523 41.57994842529297 C 39.64469528198242 42.1904296875 38.89443588256836 42.5 38.02122497558594 42.5 Z M 17.47039604187012 27.63211059570312 C 16.85642623901367 27.63211059570312 16.27886581420898 27.39106941223145 15.84408664703369 26.9533805847168 L 12.07798767089844 23.16303443908691 L 9.321396827697754 25.93753051757812 L 8.968596458435059 25.52992057800293 C 8.11281681060791 24.54117965698242 7.438036441802979 23.42045021057129 6.962986469268799 22.19886016845703 L 6.845156669616699 21.89587020874023 L 10.45254611968994 18.26478958129883 C 10.88718605041504 17.82760047912598 11.46441650390625 17.58690071105957 12.07803630828857 17.58690071105957 C 12.6916561126709 17.58690071105957 13.26888656616211 17.82760047912598 13.70339679718018 18.26466941833496 L 15.17228603363037 19.74310493469238 L 15.17228603363037 10.85233974456787 C 15.17228603363037 9.916600227355957 15.72798633575439 9.079580307006836 16.58798599243164 8.719929695129395 C 16.86980628967285 8.603119850158691 17.16529655456543 8.54419994354248 17.46771621704102 8.54419994354248 C 18.0814266204834 8.54419994354248 18.65895652770996 8.784429550170898 19.09389686584473 9.220640182495117 L 22.8604736328125 13.01165676116943 L 32.56627655029297 3.243027925491333 L 28.84693717956543 -0.5 L 39.53430557250977 -0.5 L 39.53430557250977 10.25656986236572 L 35.81234741210938 6.510269165039062 L 24.48608589172363 17.90991973876953 C 24.05142593383789 18.34712028503418 23.47418594360352 18.58782958984375 22.86058616638184 18.58782958984375 C 22.24691581726074 18.58782958984375 21.66976737976074 18.34707069396973 21.2354564666748 17.9099006652832 L 19.76615715026855 16.43117904663086 L 19.76615715026855 25.32209014892578 C 19.76615715026855 26.26022911071777 19.21015739440918 27.09753036499023 18.34969711303711 27.45523071289062 C 18.07040596008301 27.57238960266113 17.77406692504883 27.63211059570312 17.47039604187012 27.63211059570312 Z" stroke="none" fill="#fa8803"/></g></svg>