<svg xmlns="http://www.w3.org/2000/svg" xmlns:xlink="http://www.w3.org/1999/xlink" width="36" height="36" viewBox="0 0 36 36"><defs><filter id="a" x="0" y="0" width="36" height="36" filterUnits="userSpaceOnUse"><feOffset dy="2" input="SourceAlpha"/><feGaussianBlur stdDeviation="1" result="b"/><feFlood flood-opacity="0.161"/><feComposite operator="in" in2="b"/><feComposite in="SourceGraphic"/></filter></defs><g transform="translate(3 1)"><g transform="matrix(1, 0, 0, 1, -3, -1)" filter="url(#a)"><rect width="30" height="30" rx="8" transform="translate(3 1)" fill="#006298"/></g><g transform="translate(6 7)"><path d="M42.671,72.933H39.408a.408.408,0,0,0-.408.408v4.728a.408.408,0,0,0,.408.408h3.263a.408.408,0,0,0,.408-.408V76.056h4.034V79.8a2.041,2.041,0,0,0,2.039,2.039h3.036v1.128a.408.408,0,0,0,.408.408h3.7a.408.408,0,0,0,.408-.408V79.891a.408.408,0,0,0-.408-.408H52.6a.408.408,0,0,0-.408.408v1.128H49.152A1.225,1.225,0,0,1,47.928,79.8V76.056h4.26v1.128a.408.408,0,0,0,.408.408h3.7a.408.408,0,0,0,.408-.408V74.112a.408.408,0,0,0-.408-.408H52.6a.408.408,0,0,0-.408.408V75.24h-4.26V71.614a1.225,1.225,0,0,1,1.224-1.224h3.036v1.128a.408.408,0,0,0,.408.408h3.7a.408.408,0,0,0,.408-.408V68.447a.408.408,0,0,0-.408-.408H52.6a.408.408,0,0,0-.408.408v1.128H49.152a2.041,2.041,0,0,0-2.039,2.039V75.24H43.078v-1.9A.408.408,0,0,0,42.671,72.933Z" transform="translate(-39 -68.039)" fill="#fff"/></g></g></svg>