<svg xmlns="http://www.w3.org/2000/svg" width="41.651" height="42.5" viewBox="0 0 41.651 42.5"><path d="M36.578,41.228l-8.5-8.451-.82.515a17.886,17.886,0,1,1,8.8-15.4,17.7,17.7,0,0,1-3.106,10.039l-.82,1.244,8.239,8.28a2.764,2.764,0,0,1,.776,1.888,2.584,2.584,0,0,1-.776,1.888,2.719,2.719,0,0,1-3.8,0ZM4.486,17.89A13.544,13.544,0,1,0,18.031,4.419,13.531,13.531,0,0,0,4.486,17.89ZM24.026,25.4a.307.307,0,0,1-.3-.343V11.412a.332.332,0,0,1,.3-.343h3.063a.347.347,0,0,1,.3.386v13.6a.332.332,0,0,1-.3.343Zm-5.047,0a.307.307,0,0,1-.3-.343V18.233a.332.332,0,0,1,.3-.343h3.063a.369.369,0,0,1,.3.343v6.821a.332.332,0,0,1-.3.343Zm-5.09,0a.307.307,0,0,1-.3-.343v-10a.332.332,0,0,1,.3-.343h3.063a.347.347,0,0,1,.3.386v9.953a.332.332,0,0,1-.3.343Zm-4.917,0c-.172,0-.3-.086-.3-.258V19.906a.288.288,0,0,1,.3-.257h3.063a.294.294,0,0,1,.3.3V25.14a.288.288,0,0,1-.3.258Z" transform="translate(0.25 0.25)" fill="#d80000" stroke="#d80000" stroke-width="0.5"/></svg>