<svg xmlns="http://www.w3.org/2000/svg" width="17.59" height="17.59" viewBox="0 0 17.59 17.59"><path d="M21,15l-2.3,2.3-2.87-2.89-1.42,1.42L17.3,18.7,15,21h6Z" transform="translate(32 32) rotate(-180)" fill="#006298"/><path d="M6.59,6,4.29,3.7,1.42,6.59,0,5.17,2.89,2.3.59,0h6Z" transform="translate(17.59 6.59) rotate(180)" fill="#006298"/><path d="M6.59.59l-2.3,2.3L1.42,0,0,1.42,2.89,4.29.59,6.59h6Z" fill="#006298"/><path d="M6.59,6,4.29,3.7,1.42,6.59,0,5.17,2.89,2.3.59,0h6Z" transform="translate(0 11)" fill="#006298"/></svg>