<svg xmlns="http://www.w3.org/2000/svg" xmlns:xlink="http://www.w3.org/1999/xlink" width="36" height="36" viewBox="0 0 36 36"><defs><filter id="a" x="0" y="0" width="36" height="36" filterUnits="userSpaceOnUse"><feOffset dy="2" input="SourceAlpha"/><feGaussianBlur stdDeviation="1" result="b"/><feFlood flood-opacity="0.161"/><feComposite operator="in" in2="b"/><feComposite in="SourceGraphic"/></filter></defs><g transform="translate(3 1)"><g transform="matrix(1, 0, 0, 1, -3, -1)" filter="url(#a)"><rect width="30" height="30" rx="8" transform="translate(3 1)" fill="#006298"/></g><path d="M3,9H6.158V5H3Zm0,5H6.158V10H3Zm3.947,0h3.158V10H6.947Zm3.947,0h3.158V10H10.895ZM6.947,9h3.158V5H6.947Zm3.947-4V9h3.158V5Zm3.947,9H18V10H14.842ZM3,19H6.158V15H3Zm3.947,0h3.158V15H6.947Zm3.947,0h3.158V15H10.895Zm3.947,0H18V15H14.842Zm0-14V9H18V5Z" transform="translate(5 3)" fill="#fff"/></g></svg>