<svg xmlns="http://www.w3.org/2000/svg" xmlns:xlink="http://www.w3.org/1999/xlink" width="200.069" height="133.788" viewBox="0 0 200.069 133.788"><defs><filter id="a" x="1.561" y="62.5" width="196.78" height="71.288" filterUnits="userSpaceOnUse"><feOffset dx="4" dy="4" input="SourceAlpha"/><feGaussianBlur stdDeviation="5" result="b"/><feFlood flood-opacity="0.502"/><feComposite operator="in" in2="b"/><feComposite in="SourceGraphic"/></filter><filter id="c" x="0" y="0" width="200.069" height="69.87" filterUnits="userSpaceOnUse"><feOffset dx="4" dy="4" input="SourceAlpha"/><feGaussianBlur stdDeviation="5" result="d"/><feFlood flood-opacity="0.502"/><feComposite operator="in" in2="d"/><feComposite in="SourceGraphic"/></filter><filter id="e" x="0.539" y="49" width="198.787" height="34" filterUnits="userSpaceOnUse"><feOffset dx="4" dy="4" input="SourceAlpha"/><feGaussianBlur stdDeviation="5" result="f"/><feFlood flood-opacity="0.502"/><feComposite operator="in" in2="f"/><feComposite in="SourceGraphic"/></filter></defs><g transform="translate(-127.961 -332.488)"><g transform="matrix(1, 0, 0, 1, 127.96, 332.49)" filter="url(#a)"><path d="M29.247,9.985l-1.7,1.008a2.924,2.924,0,0,0-.909-1.08,2.121,2.121,0,0,0-1.161-.288,2.145,2.145,0,0,0-1.449.5,1.535,1.535,0,0,0-.576,1.224q0,1.017,1.512,1.638l1.386.567a5.918,5.918,0,0,1,2.475,1.67,3.763,3.763,0,0,1,.783,2.417A4.246,4.246,0,0,1,28.329,20.8a4.387,4.387,0,0,1-3.2,1.26,4.275,4.275,0,0,1-2.988-1.071A4.932,4.932,0,0,1,20.7,17.978l2.124-.468a3.613,3.613,0,0,0,.5,1.692,2.4,2.4,0,0,0,3.519.243,2.273,2.273,0,0,0,.648-1.665,2.337,2.337,0,0,0-.113-.743,1.884,1.884,0,0,0-.351-.621,2.806,2.806,0,0,0-.617-.531,5.94,5.94,0,0,0-.9-.473l-1.341-.558q-2.853-1.206-2.853-3.528a3.348,3.348,0,0,1,1.2-2.619,4.325,4.325,0,0,1,2.979-1.062A4.16,4.16,0,0,1,29.247,9.985Zm4.528,3.06v8.767H31.749V13.045ZM31.443,9.4a1.322,1.322,0,0,1,1.314-1.305,1.275,1.275,0,0,1,.936.387,1.246,1.246,0,0,1,.387.927,1.275,1.275,0,0,1-.387.936,1.246,1.246,0,0,1-.927.387A1.322,1.322,0,0,1,31.443,9.4Zm9.991,5.14-1.674.891q-.4-.81-.981-.81a.675.675,0,0,0-.477.185.617.617,0,0,0-.2.473q0,.5,1.17,1a6.976,6.976,0,0,1,2.169,1.278A2.187,2.187,0,0,1,42,19.13a2.76,2.76,0,0,1-.936,2.124,3.357,3.357,0,0,1-5.32-1.341l1.728-.8a3.759,3.759,0,0,0,.549.8,1.253,1.253,0,0,0,.882.342q1.026,0,1.026-.936,0-.54-.792-1.008-.306-.153-.612-.3t-.621-.3a3.8,3.8,0,0,1-1.242-.864,2.129,2.129,0,0,1-.459-1.413,2.5,2.5,0,0,1,.783-1.89,2.747,2.747,0,0,1,1.944-.747A2.652,2.652,0,0,1,41.434,14.539Zm4.474.4v6.877H43.883V14.935h-.864v-1.89h.864V9.832h2.025v3.213h1.575v1.89Zm11.1,2.97H50.723a2.662,2.662,0,0,0,.7,1.719,2.14,2.14,0,0,0,1.593.63,2.072,2.072,0,0,0,1.251-.36,5.123,5.123,0,0,0,1.107-1.332l1.71.954a6.8,6.8,0,0,1-.837,1.157,4.451,4.451,0,0,1-.945.792,3.79,3.79,0,0,1-1.089.455,5.3,5.3,0,0,1-1.269.144A4.127,4.127,0,0,1,49.8,20.8a4.727,4.727,0,0,1-1.188-3.366,4.857,4.857,0,0,1,1.152-3.366,4.391,4.391,0,0,1,6.139-.036,4.85,4.85,0,0,1,1.116,3.393Zm-2.079-1.656a1.94,1.94,0,0,0-2.043-1.62,2.1,2.1,0,0,0-.693.113,1.983,1.983,0,0,0-.59.324,2.054,2.054,0,0,0-.455.509,2.363,2.363,0,0,0-.288.675Zm4.293-3.2h2.025v.81a4.232,4.232,0,0,1,1-.828,2.424,2.424,0,0,1,1.107-.225A2.687,2.687,0,0,1,65.7,14.1a3.041,3.041,0,0,1,2.583-1.3q2.961,0,2.961,3.591v5.419H69.211v-4.87a3.756,3.756,0,0,0-.306-1.782,1.109,1.109,0,0,0-1.035-.531,1.32,1.32,0,0,0-1.22.63,4.057,4.057,0,0,0-.383,2.025v4.528H64.234V16.97q0-2.34-1.35-2.34a1.353,1.353,0,0,0-1.247.639,3.985,3.985,0,0,0-.392,2.016v4.528H59.22Zm21.044,0H82.3v8.767H80.265v-.918a3.89,3.89,0,0,1-5.7-.144A4.887,4.887,0,0,1,73.388,17.4a4.737,4.737,0,0,1,1.179-3.285A3.8,3.8,0,0,1,77.519,12.8a3.728,3.728,0,0,1,2.745,1.26ZM75.458,17.4a3.054,3.054,0,0,0,.675,2.052,2.211,2.211,0,0,0,1.746.8,2.324,2.324,0,0,0,1.818-.774,3,3,0,0,0,.693-2.034,3,3,0,0,0-.693-2.034,2.292,2.292,0,0,0-1.8-.783,2.239,2.239,0,0,0-1.746.792A2.92,2.92,0,0,0,75.458,17.4ZM97.007,6.609h2.034v15.2H97.007v-.918a3.779,3.779,0,0,1-2.709,1.17,3.858,3.858,0,0,1-2.988-1.314A4.887,4.887,0,0,1,90.13,17.4a4.724,4.724,0,0,1,1.179-3.276,3.787,3.787,0,0,1,5.7-.063ZM92.2,17.4a3.054,3.054,0,0,0,.675,2.052,2.211,2.211,0,0,0,1.746.8,2.324,2.324,0,0,0,1.818-.774,3,3,0,0,0,.693-2.034,3,3,0,0,0-.693-2.034,2.292,2.292,0,0,0-1.8-.783,2.239,2.239,0,0,0-1.746.792A2.92,2.92,0,0,0,92.2,17.4Zm17.381.5H103.3a2.662,2.662,0,0,0,.7,1.719,2.14,2.14,0,0,0,1.593.63,2.072,2.072,0,0,0,1.251-.36,5.123,5.123,0,0,0,1.107-1.332l1.71.954a6.8,6.8,0,0,1-.837,1.157,4.451,4.451,0,0,1-.945.792,3.79,3.79,0,0,1-1.089.455,5.3,5.3,0,0,1-1.269.144,4.127,4.127,0,0,1-3.15-1.26,4.727,4.727,0,0,1-1.188-3.366,4.857,4.857,0,0,1,1.152-3.366,4.391,4.391,0,0,1,6.139-.036,4.85,4.85,0,0,1,1.116,3.393ZM107.5,16.249a1.94,1.94,0,0,0-2.043-1.62,2.1,2.1,0,0,0-.693.113,1.983,1.983,0,0,0-.59.324,2.054,2.054,0,0,0-.455.509,2.363,2.363,0,0,0-.288.675Zm12.466-.081v5.644h-2.1V7.915h2.376a10.718,10.718,0,0,1,2.637.243,3.537,3.537,0,0,1,1.584.918,3.955,3.955,0,0,1,1.2,2.952,3.81,3.81,0,0,1-1.278,3.024,5.058,5.058,0,0,1-3.447,1.116Zm0-1.944h.783q2.889,0,2.889-2.223,0-2.151-2.979-2.151h-.693Zm7.471-1.179h2.025v.783a3.867,3.867,0,0,1,.99-.8A2.271,2.271,0,0,1,131.5,12.8a3.271,3.271,0,0,1,1.674.522l-.927,1.854a1.933,1.933,0,0,0-1.125-.414q-1.656,0-1.656,2.5v4.546h-2.025Zm14.753,4.861h-6.283a2.662,2.662,0,0,0,.7,1.719,2.14,2.14,0,0,0,1.593.63,2.072,2.072,0,0,0,1.251-.36,5.123,5.123,0,0,0,1.107-1.332l1.71.954a6.8,6.8,0,0,1-.837,1.157,4.451,4.451,0,0,1-.945.792,3.79,3.79,0,0,1-1.089.455,5.3,5.3,0,0,1-1.269.144,4.127,4.127,0,0,1-3.15-1.26,4.727,4.727,0,0,1-1.188-3.366,4.857,4.857,0,0,1,1.152-3.366,4.391,4.391,0,0,1,6.139-.036,4.85,4.85,0,0,1,1.116,3.393Zm-2.079-1.656a1.94,1.94,0,0,0-2.043-1.62,2.1,2.1,0,0,0-.693.113,1.983,1.983,0,0,0-.59.324,2.054,2.054,0,0,0-.455.509,2.364,2.364,0,0,0-.288.675Zm5.068-3.2,2.268,4.924,2.259-4.924h2.277l-4.555,9.37-4.519-9.37Zm10.2,0v8.767h-2.025V13.045ZM153.047,9.4a1.322,1.322,0,0,1,1.314-1.305,1.275,1.275,0,0,1,.936.387,1.246,1.246,0,0,1,.387.927,1.275,1.275,0,0,1-.387.936,1.246,1.246,0,0,1-.927.387A1.322,1.322,0,0,1,153.047,9.4Zm9.991,5.14-1.674.891q-.4-.81-.981-.81a.675.675,0,0,0-.477.185.617.617,0,0,0-.2.473q0,.5,1.17,1a6.976,6.976,0,0,1,2.169,1.278,2.187,2.187,0,0,1,.558,1.575,2.76,2.76,0,0,1-.936,2.124,3.357,3.357,0,0,1-5.32-1.341l1.728-.8a3.759,3.759,0,0,0,.549.8,1.253,1.253,0,0,0,.882.342q1.026,0,1.026-.936,0-.54-.792-1.008-.306-.153-.612-.3t-.621-.3a3.8,3.8,0,0,1-1.242-.864,2.129,2.129,0,0,1-.459-1.413,2.5,2.5,0,0,1,.783-1.89,2.747,2.747,0,0,1,1.944-.747A2.652,2.652,0,0,1,163.038,14.539Zm8.848-1.494h2.034v8.767h-2.034v-.918a3.89,3.89,0,0,1-5.7-.144,4.887,4.887,0,0,1-1.179-3.348,4.737,4.737,0,0,1,1.179-3.285,3.8,3.8,0,0,1,2.952-1.314,3.728,3.728,0,0,1,2.745,1.26ZM167.079,17.4a3.054,3.054,0,0,0,.675,2.052,2.211,2.211,0,0,0,1.746.8,2.324,2.324,0,0,0,1.818-.774,3,3,0,0,0,.693-2.034,3,3,0,0,0-.693-2.034,2.292,2.292,0,0,0-1.8-.783,2.239,2.239,0,0,0-1.746.792A2.92,2.92,0,0,0,167.079,17.4Zm.216-5.851-1.179-1,.261-.369a5.364,5.364,0,0,1,.486-.608,2.636,2.636,0,0,1,.477-.405,1.712,1.712,0,0,1,.5-.225,2.26,2.26,0,0,1,.567-.068,3.716,3.716,0,0,1,1.629.468,3.867,3.867,0,0,0,1.206.477q.5,0,1.116-.972l1.143.954a2.615,2.615,0,0,1-2.34,1.728,4.826,4.826,0,0,1-1.647-.5,3.119,3.119,0,0,0-1.224-.414Q167.8,10.615,167.3,11.551Zm8.767,5.815a4.356,4.356,0,0,1,1.359-3.231,4.795,4.795,0,0,1,6.643.009,4.463,4.463,0,0,1,1.35,3.294,4.44,4.44,0,0,1-1.359,3.3,4.645,4.645,0,0,1-3.357,1.323,4.455,4.455,0,0,1-3.3-1.35A4.541,4.541,0,0,1,176.062,17.366Zm2.07.036a2.957,2.957,0,0,0,.7,2.079,2.728,2.728,0,0,0,3.8.009,2.882,2.882,0,0,0,.711-2.043,2.882,2.882,0,0,0-.711-2.043,2.695,2.695,0,0,0-3.78,0A2.817,2.817,0,0,0,178.133,17.4ZM26.65,27.924h2.034v15.2H26.65v-.918a3.779,3.779,0,0,1-2.709,1.17,3.858,3.858,0,0,1-2.988-1.314,4.887,4.887,0,0,1-1.179-3.348,4.724,4.724,0,0,1,1.179-3.276,3.787,3.787,0,0,1,5.7-.063ZM21.844,38.716a3.054,3.054,0,0,0,.675,2.052,2.211,2.211,0,0,0,1.746.8,2.324,2.324,0,0,0,1.818-.774,3.332,3.332,0,0,0,0-4.068,2.292,2.292,0,0,0-1.8-.783,2.239,2.239,0,0,0-1.746.792A2.92,2.92,0,0,0,21.844,38.716Zm17.381.5H32.942a2.662,2.662,0,0,0,.7,1.719,2.141,2.141,0,0,0,1.593.63,2.072,2.072,0,0,0,1.251-.36A5.123,5.123,0,0,0,37.6,39.877l1.71.954a6.8,6.8,0,0,1-.837,1.157,4.451,4.451,0,0,1-.945.792,3.79,3.79,0,0,1-1.089.455,5.3,5.3,0,0,1-1.269.144,4.127,4.127,0,0,1-3.15-1.26,4.727,4.727,0,0,1-1.188-3.366,4.857,4.857,0,0,1,1.152-3.366,3.972,3.972,0,0,1,3.078-1.269,3.937,3.937,0,0,1,3.06,1.233,4.85,4.85,0,0,1,1.116,3.393Zm-2.079-1.656a1.94,1.94,0,0,0-2.043-1.62,2.1,2.1,0,0,0-.693.113,1.983,1.983,0,0,0-.59.324,2.054,2.054,0,0,0-.455.509,2.363,2.363,0,0,0-.288.675ZM55.372,31.3l-1.7,1.008a2.924,2.924,0,0,0-.909-1.08,2.121,2.121,0,0,0-1.161-.288,2.145,2.145,0,0,0-1.449.5,1.535,1.535,0,0,0-.576,1.224q0,1.017,1.512,1.638l1.386.567a5.918,5.918,0,0,1,2.475,1.67,3.763,3.763,0,0,1,.783,2.417,4.246,4.246,0,0,1-1.278,3.168,4.387,4.387,0,0,1-3.2,1.26,4.275,4.275,0,0,1-2.988-1.071,4.932,4.932,0,0,1-1.449-3.015l2.124-.468a3.613,3.613,0,0,0,.5,1.692,2.4,2.4,0,0,0,3.519.243,2.273,2.273,0,0,0,.648-1.665,2.337,2.337,0,0,0-.113-.743,1.884,1.884,0,0,0-.351-.621,2.806,2.806,0,0,0-.617-.531,5.94,5.94,0,0,0-.9-.473L50.3,36.169q-2.853-1.206-2.853-3.528a3.348,3.348,0,0,1,1.2-2.619,4.325,4.325,0,0,1,2.979-1.062A4.16,4.16,0,0,1,55.372,31.3ZM65.859,39.22H59.576a2.662,2.662,0,0,0,.7,1.719,2.141,2.141,0,0,0,1.593.63,2.072,2.072,0,0,0,1.251-.36,5.123,5.123,0,0,0,1.107-1.332l1.71.954a6.8,6.8,0,0,1-.837,1.157,4.451,4.451,0,0,1-.945.792,3.79,3.79,0,0,1-1.089.455,5.3,5.3,0,0,1-1.269.144,4.127,4.127,0,0,1-3.15-1.26,4.727,4.727,0,0,1-1.188-3.366,4.857,4.857,0,0,1,1.152-3.366,4.391,4.391,0,0,1,6.139-.036,4.85,4.85,0,0,1,1.116,3.393Zm-2.079-1.656a1.94,1.94,0,0,0-2.043-1.62,2.1,2.1,0,0,0-.693.113,1.983,1.983,0,0,0-.59.324,2.054,2.054,0,0,0-.455.509,2.363,2.363,0,0,0-.288.675Zm.954-7.525-3.276,2.97-1.107-.684,2.475-3.276Zm3.339,4.32H70.1v.783a3.867,3.867,0,0,1,.99-.8,2.271,2.271,0,0,1,1.044-.225,3.271,3.271,0,0,1,1.674.522l-.927,1.854a1.934,1.934,0,0,0-1.125-.414q-1.656,0-1.656,2.5v4.546H68.073Zm9.2,0v8.767H75.247V34.359Zm-2.331-3.645a1.322,1.322,0,0,1,1.314-1.305,1.275,1.275,0,0,1,.936.387,1.246,1.246,0,0,1,.387.927,1.275,1.275,0,0,1-.387.936,1.246,1.246,0,0,1-.927.387,1.322,1.322,0,0,1-1.323-1.332Zm12.88,8.506H81.538a2.662,2.662,0,0,0,.7,1.719,2.141,2.141,0,0,0,1.593.63,2.072,2.072,0,0,0,1.251-.36,5.123,5.123,0,0,0,1.107-1.332l1.71.954a6.8,6.8,0,0,1-.837,1.157,4.451,4.451,0,0,1-.945.792,3.79,3.79,0,0,1-1.089.455,5.3,5.3,0,0,1-1.269.144,4.127,4.127,0,0,1-3.15-1.26,4.727,4.727,0,0,1-1.188-3.366,4.857,4.857,0,0,1,1.152-3.366,4.391,4.391,0,0,1,6.139-.036,4.85,4.85,0,0,1,1.116,3.393Zm-2.079-1.656a1.94,1.94,0,0,0-2.043-1.62,2.1,2.1,0,0,0-.693.113,1.983,1.983,0,0,0-.59.324,2.054,2.054,0,0,0-.455.509,2.363,2.363,0,0,0-.288.675Zm9.388-1.71-1.674.891q-.4-.81-.981-.81a.675.675,0,0,0-.477.185.617.617,0,0,0-.2.473q0,.5,1.17,1a6.976,6.976,0,0,1,2.169,1.278,2.187,2.187,0,0,1,.558,1.575,2.76,2.76,0,0,1-.936,2.124,3.357,3.357,0,0,1-5.32-1.341l1.728-.8a3.759,3.759,0,0,0,.549.8,1.253,1.253,0,0,0,.882.342q1.026,0,1.026-.936,0-.54-.792-1.008-.306-.153-.612-.3t-.621-.3a3.8,3.8,0,0,1-1.242-.864,2.129,2.129,0,0,1-.459-1.413,2.5,2.5,0,0,1,.783-1.89,2.747,2.747,0,0,1,1.944-.747A2.652,2.652,0,0,1,95.13,35.854Zm12.3-4.654V43.126h-2.1V31.2h-3.2V29.229h8.479V31.2Zm11.9,8.02h-6.283a2.662,2.662,0,0,0,.7,1.719,2.141,2.141,0,0,0,1.593.63,2.072,2.072,0,0,0,1.251-.36,5.123,5.123,0,0,0,1.107-1.332l1.71.954a6.8,6.8,0,0,1-.837,1.157,4.451,4.451,0,0,1-.945.792,3.79,3.79,0,0,1-1.089.455,5.3,5.3,0,0,1-1.269.144,4.127,4.127,0,0,1-3.15-1.26,4.727,4.727,0,0,1-1.188-3.366,4.857,4.857,0,0,1,1.152-3.366,4.391,4.391,0,0,1,6.139-.036,4.85,4.85,0,0,1,1.116,3.393Zm-2.079-1.656a1.94,1.94,0,0,0-2.043-1.62,2.1,2.1,0,0,0-.693.113,1.983,1.983,0,0,0-.59.324,2.054,2.054,0,0,0-.455.509,2.363,2.363,0,0,0-.288.675Zm4.293-3.2h2.025v.81a4.232,4.232,0,0,1,1-.828,2.424,2.424,0,0,1,1.107-.225,2.687,2.687,0,0,1,2.349,1.3,3.041,3.041,0,0,1,2.583-1.3q2.961,0,2.961,3.591v5.419H131.53v-4.87a3.757,3.757,0,0,0-.306-1.782,1.109,1.109,0,0,0-1.035-.531,1.32,1.32,0,0,0-1.22.63,4.058,4.058,0,0,0-.383,2.025v4.528h-2.034V38.284q0-2.34-1.35-2.34a1.353,1.353,0,0,0-1.247.639,3.985,3.985,0,0,0-.392,2.016v4.528h-2.025ZM138.371,47.9h-2.025V34.359h2.025v.954a3.747,3.747,0,0,1,2.718-1.2,3.79,3.79,0,0,1,2.979,1.332,4.81,4.81,0,0,1,1.188,3.339,4.737,4.737,0,0,1-1.179,3.285,3.842,3.842,0,0,1-5.707.072Zm4.816-9.1a3.028,3.028,0,0,0-.684-2.052,2.211,2.211,0,0,0-1.746-.8,2.314,2.314,0,0,0-1.809.774,2.935,2.935,0,0,0-.693,2.034,3,3,0,0,0,.693,2.034,2.275,2.275,0,0,0,1.8.783,2.2,2.2,0,0,0,1.737-.792A2.876,2.876,0,0,0,143.186,38.8Zm3.8-.117a4.356,4.356,0,0,1,1.359-3.231,4.795,4.795,0,0,1,6.643.009,4.694,4.694,0,0,1-.009,6.6,4.645,4.645,0,0,1-3.357,1.323,4.455,4.455,0,0,1-3.3-1.35A4.541,4.541,0,0,1,146.985,38.68Zm2.07.036a2.957,2.957,0,0,0,.7,2.079,2.728,2.728,0,0,0,3.8.009,3.291,3.291,0,0,0,0-4.086,2.695,2.695,0,0,0-3.78,0A2.817,2.817,0,0,0,149.055,38.716Zm9.424-4.356H160.5v.783a3.868,3.868,0,0,1,.99-.8,2.271,2.271,0,0,1,1.044-.225,3.271,3.271,0,0,1,1.674.522l-.927,1.854a1.933,1.933,0,0,0-1.125-.414q-1.656,0-1.656,2.5v4.546h-2.025Zm13.231,0h2.034v8.767H171.71v-.918a3.89,3.89,0,0,1-5.7-.144,4.887,4.887,0,0,1-1.179-3.348,4.737,4.737,0,0,1,1.179-3.285,3.8,3.8,0,0,1,2.952-1.314,3.728,3.728,0,0,1,2.745,1.26ZM166.9,38.716a3.054,3.054,0,0,0,.675,2.052,2.211,2.211,0,0,0,1.746.8,2.324,2.324,0,0,0,1.818-.774,3.332,3.332,0,0,0,0-4.068,2.292,2.292,0,0,0-1.8-.783,2.239,2.239,0,0,0-1.746.792A2.92,2.92,0,0,0,166.9,38.716Zm11.422-4.356v8.767H176.3V34.359Zm-2.331-3.645a1.322,1.322,0,0,1,1.314-1.305,1.275,1.275,0,0,1,.936.387,1.246,1.246,0,0,1,.387.927,1.275,1.275,0,0,1-.387.936,1.246,1.246,0,0,1-.927.387,1.322,1.322,0,0,1-1.323-1.332Zm9.991,5.14-1.674.891q-.4-.81-.981-.81a.675.675,0,0,0-.477.185.617.617,0,0,0-.2.473q0,.5,1.17,1A6.975,6.975,0,0,1,186,38.869a2.187,2.187,0,0,1,.558,1.575,2.76,2.76,0,0,1-.936,2.124,3.357,3.357,0,0,1-5.32-1.341l1.728-.8a3.759,3.759,0,0,0,.549.8,1.253,1.253,0,0,0,.882.342q1.026,0,1.026-.936,0-.54-.792-1.008-.306-.153-.612-.3t-.621-.3a3.8,3.8,0,0,1-1.242-.864,2.129,2.129,0,0,1-.459-1.413,2.5,2.5,0,0,1,.783-1.89,2.747,2.747,0,0,1,1.944-.747A2.652,2.652,0,0,1,185.986,35.854Z" transform="translate(-7.21 66.89)" fill="#fff"/></g><g transform="matrix(1, 0, 0, 1, 127.96, 332.49)" filter="url(#c)"><path d="M51.882,29.152H46.3v36.5h5.582v-16.8H67.534v16.8h5.582v-36.5H67.534V43.6H51.882Zm51.224,5.254V29.152H80.777v5.254h8.373V65.654h5.582V34.405Zm27.91.219a12.434,12.434,0,0,0-2.791-3.667,10.764,10.764,0,0,0-7.333-2.463c-6.841,0-10.672,4.706-10.672,9.632,0,5.473,4.433,7.99,7.443,9.249l3.5,1.478c2.408.985,5.254,2.517,5.254,6.239a5.865,5.865,0,0,1-6.02,6.129,5.759,5.759,0,0,1-4.761-2.189,7.883,7.883,0,0,1-1.532-4.652l-5.527,1.2a11.817,11.817,0,0,0,3.065,7.114,10.679,10.679,0,0,0,8.592,3.667C127.076,66.365,132,61.6,132,54.654c0-4.159-1.861-7.99-8.592-10.726l-3.667-1.478c-3.557-1.423-3.94-3.338-3.94-4.433,0-2.353,1.751-4.378,5.144-4.378a5.652,5.652,0,0,1,5.582,3.612ZM156.9,57.883a8.322,8.322,0,0,1-2.134,2.517A5.647,5.647,0,0,1,151.1,61.55a5.479,5.479,0,0,1-4.1-1.478,7.615,7.615,0,0,1-1.97-4.652h16.527v-.657c0-2.408-.274-6.677-3.229-9.741a9.919,9.919,0,0,0-7.388-3.01,10.5,10.5,0,0,0-7.716,3.119,13.505,13.505,0,0,0-3.667,9.468,12.366,12.366,0,0,0,3.393,8.811,10.216,10.216,0,0,0,7.771,2.955,12.675,12.675,0,0,0,6.786-1.751,12.08,12.08,0,0,0,3.886-4.214Zm-11.492-6.841a6.038,6.038,0,0,1,1.642-2.955,5.592,5.592,0,0,1,7.388-.164,5.572,5.572,0,0,1,1.642,3.119Zm40.607,6.841a8.322,8.322,0,0,1-2.134,2.517,5.647,5.647,0,0,1-3.667,1.149,5.479,5.479,0,0,1-4.1-1.478,7.615,7.615,0,0,1-1.97-4.652h16.527v-.657c0-2.408-.274-6.677-3.229-9.741a9.92,9.92,0,0,0-7.388-3.01,10.5,10.5,0,0,0-7.716,3.119,13.505,13.505,0,0,0-3.667,9.468,12.367,12.367,0,0,0,3.393,8.811,10.216,10.216,0,0,0,7.771,2.955,12.675,12.675,0,0,0,6.786-1.751A12.08,12.08,0,0,0,190.5,60.4Zm-11.492-6.841a6.038,6.038,0,0,1,1.642-2.955,5.592,5.592,0,0,1,7.388-.164,5.572,5.572,0,0,1,1.642,3.119Zm24.463,14.612h5.363V53.724c0-1.532,0-3.721,1.478-5.308a4.179,4.179,0,0,1,3.338-1.259,4.855,4.855,0,0,1,2.736.821l2.189-4.871a7.956,7.956,0,0,0-4.214-1.095,6.194,6.194,0,0,0-3.284.766,9.276,9.276,0,0,0-2.244,1.915v-2.08h-5.363Z" transform="translate(-34.3 -16.49)" fill="#fff" stroke="#fff" stroke-width="2"/></g><g transform="matrix(1, 0, 0, 1, 127.96, 332.49)" filter="url(#e)"><line x2="168.787" transform="translate(11.54 62)" fill="none" stroke="#fdc82f" stroke-width="4"/></g></g></svg>