<svg xmlns="http://www.w3.org/2000/svg" width="41.447" height="42.5" viewBox="0 0 41.447 42.5"><g transform="translate(0.25 0.25)"><path d="M35.816,41.127l-8.072-8.072-.535.338,0,0,0,0A17.974,17.974,0,1,1,17.99,0,18.049,18.049,0,0,1,34.56,10.966a17.9,17.9,0,0,1-1.678,17.051l-.624.953,7.818,7.9.005.005.005.006A3.107,3.107,0,0,1,40.947,39a3.012,3.012,0,0,1-5.132,2.13ZM13,6.13a12.924,12.924,0,0,0-6.832,6.832,12.824,12.824,0,0,0,16.8,16.8A12.826,12.826,0,1,0,13,6.13ZM7.249,18.092a11.7,11.7,0,0,1,21.776,0,11.7,11.7,0,0,1-21.776,0Zm5.939,0a4.949,4.949,0,1,0,4.949-4.949A4.951,4.951,0,0,0,13.188,18.092Zm1.98,0a2.969,2.969,0,1,1,2.969,2.969A2.965,2.965,0,0,1,15.167,18.092Z" transform="translate(0 0)" fill="#686868" stroke="#686868" stroke-width="0.5"/></g></svg>