<svg xmlns="http://www.w3.org/2000/svg" width="41.447" height="42.5" viewBox="0 0 41.447 42.5"><g transform="translate(0.25 0.25)"><path d="M35.816,41.127l-8.072-8.072-.535.338,0,0,0,0A17.973,17.973,0,1,1,17.99,0,18.05,18.05,0,0,1,34.56,10.966a17.9,17.9,0,0,1-1.678,17.051l-.624.953,7.818,7.9.005.005.005.006A3.106,3.106,0,0,1,40.947,39a3.012,3.012,0,0,1-5.132,2.13ZM13,6.13A12.828,12.828,0,0,0,17.99,30.775,12.831,12.831,0,0,0,22.975,6.13a12.8,12.8,0,0,0-9.97,0ZM8.925,20.65A2.313,2.313,0,0,1,11.9,17.115l3.978,3.345L23.565,11.4a2.313,2.313,0,0,1,3.529,2.978L16.421,26.967Z" transform="translate(0 0)" fill="#2ea611" stroke="#2ea611" stroke-width="0.5"/></g></svg>